<svg width="13" height="12" viewBox="0 0 13 12" fill="none" xmlns="http://www.w3.org/2000/svg">
<path d="M6.25474 0.173835C6.2919 0.10127 6.3956 0.10127 6.43276 0.173834L8.27297 3.76772C8.2875 3.79609 8.31467 3.81583 8.34614 3.82088L12.3328 4.46045C12.4133 4.47337 12.4453 4.572 12.3878 4.62976L9.53846 7.49048C9.51597 7.51306 9.50559 7.54501 9.51052 7.57649L10.1342 11.5657C10.1468 11.6462 10.0629 11.7072 9.99017 11.6703L6.38897 9.84443C6.36055 9.83002 6.32695 9.83002 6.29853 9.84443L2.69733 11.6703C2.62462 11.7072 2.54072 11.6462 2.55331 11.5657L3.17698 7.57649C3.18191 7.54501 3.17153 7.51306 3.14904 7.49048L0.299704 4.62976C0.242173 4.572 0.27422 4.47337 0.354715 4.46045L4.34136 3.82088C4.37283 3.81583 4.4 3.79609 4.41453 3.76772L6.25474 0.173835Z" fill="#E9A426"/>
</svg>
