<svg width="11" height="10" viewBox="0 0 11 10" fill="none" xmlns="http://www.w3.org/2000/svg">
<circle cx="5.5" cy="5" r="5" fill="#C94D3F"/>
<path d="M6.17718 5.85626L6.52718 5.50626C6.57432 5.4597 6.63396 5.42783 6.69886 5.41452C6.76377 5.4012 6.83114 5.40702 6.8928 5.43126L7.31937 5.60157C7.38168 5.62686 7.43511 5.67004 7.47293 5.72565C7.51074 5.78126 7.53125 5.84682 7.53187 5.91407V6.69532C7.5315 6.74107 7.52189 6.78627 7.50359 6.8282C7.4853 6.87013 7.45871 6.90793 7.42543 6.93931C7.39215 6.9707 7.35286 6.99502 7.30992 7.01083C7.26699 7.02663 7.2213 7.03358 7.17562 7.03126C4.18655 6.84532 3.58343 4.31407 3.46937 3.34532C3.46407 3.29775 3.46891 3.24959 3.48356 3.20402C3.49821 3.15846 3.52235 3.11651 3.55438 3.08093C3.58641 3.04536 3.6256 3.01698 3.66939 2.99764C3.71318 2.97831 3.76056 2.96846 3.80843 2.96876H4.56312C4.63046 2.96896 4.69621 2.9893 4.7519 3.02717C4.80759 3.06504 4.85067 3.1187 4.87562 3.18126L5.04593 3.60782C5.07097 3.66924 5.07736 3.73667 5.0643 3.8017C5.05123 3.86672 5.0193 3.92646 4.97249 3.97344L4.62249 4.32344C4.62249 4.32344 4.82405 5.68751 6.17718 5.85626Z" fill="white"/>
</svg>
